<svg xmlns="http://www.w3.org/2000/svg" width="375" height="812" viewBox="0 0 375 812">
<defs><style>.t{font-family:'Microsoft YaHei',sans-serif;fill:#222}.w{fill:#fff;font-family:'Microsoft YaHei',sans-serif}.s{font-size:13px}.m{font-size:16px}.l{font-size:24px;font-weight:700}.card{fill:#fff;stroke:#c8c8c8;stroke-width:1}.btn{fill:#333}</style></defs>
<rect width="375" height="812" fill="#bdbdbd"/><text x="18" y="20" class="w s">9:41</text><text x="357" y="20" class="w s" text-anchor="end">5G  ▰</text>
<rect x="16" y="45" width="42" height="42" rx="14" fill="#ffffff" opacity=".2"/><text x="37" y="74" class="w l" text-anchor="middle">‹</text><text x="187" y="71" class="w m" text-anchor="middle">星际协作站</text><rect x="317" y="45" width="42" height="42" rx="14" fill="#ffffff" opacity=".2"/><text x="338" y="72" class="w m" text-anchor="middle">?</text>
<text x="28" y="135" class="w l">召集协作者</text><text x="28" y="160" class="w s">一起启动星核，点亮新的星域</text>
<rect x="20" y="186" width="335" height="134" rx="24" class="card" opacity=".96"/><text x="187" y="220" class="t m" text-anchor="middle">星核启动进度</text><text x="187" y="263" class="t l" text-anchor="middle">2 / 4 位协作者</text><circle cx="114" cy="292" r="14" fill="#ff765d"/><circle cx="163" cy="292" r="14" fill="#ff765d"/><circle cx="212" cy="292" r="14" fill="#fff" stroke="#ff765d" stroke-width="2"/><circle cx="261" cy="292" r="14" fill="#fff" stroke="#ff765d" stroke-width="2"/>
<rect x="20" y="340" width="335" height="92" rx="20" class="card"/><text x="42" y="370" class="t m">邀请收益</text><text x="42" y="397" class="t s">你：能量晶 ×2　协作者：星尘 ×10</text><text x="42" y="418" class="t s">完成有效协作后才计入进度</text>
<rect x="47" y="450" width="281" height="54" rx="27" class="btn"/><text x="187" y="484" class="w m" text-anchor="middle">召集协作者</text>
<text x="20" y="538" class="w m">协作者状态</text><rect x="20" y="552" width="335" height="38" rx="12" class="card" opacity=".95"/><text x="38" y="577" class="t s">协作者 A</text><text x="337" y="577" class="t s" text-anchor="end">已助力</text><rect x="20" y="598" width="335" height="38" rx="12" class="card" opacity=".95"/><text x="38" y="623" class="t s">协作者 B</text><text x="337" y="623" class="t s" text-anchor="end">待完成</text>
</svg>
